<svg xmlns="http://www.w3.org/2000/svg" viewBox="0 0 24 24">
  <path d="M18 1C16.373466 1 14.941036 1.793645 14.027344 3L5 3C3.895 3 3 3.895 3 5L3 19C3 19.178 3.0312188 19.346719 3.0742188 19.511719L13.650391 8.9355469C13.921917 9.5969385 14.236041 10.22471 14.542969 10.810547C14.550361 10.824662 14.55512 10.837469 14.5625 10.851562L13.414062 12L20.925781 19.511719C20.968781 19.346719 21 19.178 21 19L21 11.660156C21.158385 11.323154 21.328472 10.980602 21.509766 10.626953C22.208766 9.2619531 23 7.714 23 6C23 3.243 20.757 1 18 1 z M 17.972656 3.0292969C19.629656 3.0292969 20.972656 4.3722969 20.972656 6.0292969C20.971656 8.5252969 18.376953 11.030062 18.376953 13.664062C18.376953 13.870062 18.176703 14.023437 17.970703 14.023438C17.764703 14.023438 17.595703 13.840766 17.595703 13.634766C17.595703 11.000766 14.972656 8.7552969 14.972656 6.0292969C14.972656 4.3722969 16.315656 3.0292969 17.972656 3.0292969 z M 8.0019531 5C8.7799531 5 9.4874844 5.29525 10.021484 5.78125L9.1777344 6.6269531C8.8607344 6.3559531 8.4509531 6.1894531 8.0019531 6.1894531C7.0019531 6.1894531 6.1914063 7 6.1914062 8C6.1914062 8.999 7.0019531 9.8105469 8.0019531 9.8105469C8.8409531 9.8105469 9.4217656 9.3121875 9.6347656 8.6171875L8.0019531 8.6171875L8.0019531 7.4726562L10.828125 7.4765625C11.074125 8.6455625 10.519953 11 8.0019531 11C6.3439531 11 5 9.657 5 8C5 6.343 6.3439531 5 8.0019531 5 z M 18 5 A 1 1 0 0 0 17 6 A 1 1 0 0 0 18 7 A 1 1 0 0 0 19 6 A 1 1 0 0 0 18 5 z M 12 13.414062L4.4882812 20.925781C4.6532812 20.968781 4.822 21 5 21L19 21C19.178 21 19.346719 20.968781 19.511719 20.925781L12 13.414062 z" fill="#5B5B5B" />
</svg>