<svg xmlns="http://www.w3.org/2000/svg" viewBox="0 0 32 32">
  <path d="M7.75 3C7.675781 2.992188 7.609375 3.027344 7.53125 3.03125C7.464844 3.035156 7.410156 3.019531 7.34375 3.03125C7.332031 3.03125 7.324219 3.03125 7.3125 3.03125C7.28125 3.03125 7.25 3.03125 7.21875 3.03125C7.109375 3.054688 7.003906 3.097656 6.90625 3.15625C6.800781 3.210938 6.703125 3.285156 6.625 3.375C6.234375 3.703125 6 4.210938 6 4.6875L6 27.46875C6 27.960938 6.21875 28.554688 6.75 28.84375C6.789063 28.863281 6.835938 28.859375 6.875 28.875C6.90625 28.886719 6.9375 28.898438 6.96875 28.90625C7.445313 29.066406 7.941406 28.972656 8.3125 28.75C8.324219 28.75 8.332031 28.75 8.34375 28.75C8.773438 28.488281 17.75 23 17.75 23L22.53125 20.125C22.53125 20.125 26.585938 17.671875 27.125 17.34375C27.582031 17.066406 28.007813 16.539063 28 15.90625C27.992188 15.273438 27.554688 14.804688 27.125 14.5625C26.988281 14.484375 25.785156 13.761719 24.6875 13.09375C23.636719 12.453125 22.714844 11.898438 22.625 11.84375C22.59375 11.820313 22.5625 11.800781 22.53125 11.78125L17.75 8.875C17.75 8.875 9.050781 3.597656 8.53125 3.28125C8.300781 3.144531 8.027344 3.03125 7.75 3 Z M 8 6.09375L17.4375 15.9375L8 25.78125 Z M 12.8125 8.21875C14.578125 9.289063 16.71875 10.59375 16.71875 10.59375L20.40625 12.84375L18.8125 14.5 Z M 22.15625 13.90625C22.539063 14.140625 22.890625 14.347656 23.65625 14.8125C24.492188 15.320313 25.074219 15.644531 25.5625 15.9375C24.644531 16.492188 22.902344 17.566406 22.1875 18L20.21875 15.9375 Z M 18.8125 17.40625L20.40625 19.0625L16.71875 21.3125C16.71875 21.3125 14.527344 22.628906 12.78125 23.6875Z" fill="#5B5B5B" />
</svg>