<svg xmlns="http://www.w3.org/2000/svg" viewBox="0 0 80 80">
  <path d="M24 5C13.519531 5 5 13.519531 5 24C5 27.503906 6.011719 30.753906 7.664063 33.566406C7.25 35.652344 7 37.792969 7 40C7 58.214844 21.785156 73 40 73C42.207031 73 44.347656 72.75 46.433594 72.335938C49.246094 73.988281 52.496094 75 56 75C66.480469 75 75 66.480469 75 56C75 52.496094 73.988281 49.246094 72.335938 46.433594C72.75 44.347656 73 42.207031 73 40C73 21.785156 58.214844 7 40 7C37.792969 7 35.652344 7.25 33.566406 7.664063C30.753906 6.011719 27.503906 5 24 5 Z M 24 7C27.265625 7 30.300781 7.9375 32.890625 9.53125L33.234375 9.742188L33.621094 9.660156C35.679688 9.230469 37.8125 9 40 9C57.132813 9 71 22.867188 71 40C71 42.1875 70.769531 44.320313 70.339844 46.378906L70.257813 46.765625L70.46875 47.109375C72.0625 49.699219 73 52.734375 73 56C73 65.402344 65.402344 73 56 73C52.734375 73 49.699219 72.0625 47.109375 70.46875L46.765625 70.257813L46.378906 70.339844C44.320313 70.769531 42.1875 71 40 71C22.867188 71 9 57.132813 9 40C9 37.8125 9.230469 35.679688 9.660156 33.621094L9.742188 33.234375L9.53125 32.890625C7.9375 30.300781 7 27.265625 7 24C7 14.597656 14.597656 7 24 7 Z M 24 10C23.449219 10 23 10.449219 23 11C23 11.550781 23.449219 12 24 12C24.550781 12 25 11.550781 25 11C25 10.449219 24.550781 10 24 10 Z M 19.03125 10.988281C18.902344 10.988281 18.769531 11.011719 18.640625 11.066406C18.132813 11.277344 17.890625 11.863281 18.101563 12.375C18.3125 12.882813 18.898438 13.125 19.40625 12.914063C19.917969 12.703125 20.160156 12.117188 19.949219 11.609375C19.789063 11.226563 19.421875 10.992188 19.03125 10.988281 Z M 28.96875 10.988281C28.578125 10.992188 28.210938 11.226563 28.050781 11.609375C27.839844 12.117188 28.082031 12.703125 28.59375 12.914063C29.101563 13.125 29.6875 12.882813 29.898438 12.375C30.109375 11.863281 29.867188 11.277344 29.359375 11.066406C29.230469 11.011719 29.097656 10.988281 28.96875 10.988281 Z M 40 12C39.449219 12 39 12.449219 39 13C39 13.550781 39.449219 14 40 14C40.550781 14 41 13.550781 41 13C41 12.449219 40.550781 12 40 12 Z M 34.535156 12.535156C33.996094 12.644531 33.644531 13.171875 33.75 13.714844C33.859375 14.257813 34.386719 14.605469 34.925781 14.5C35.46875 14.390625 35.820313 13.867188 35.714844 13.324219C35.605469 12.78125 35.078125 12.429688 34.535156 12.535156 Z M 45.464844 12.535156C44.921875 12.429688 44.394531 12.78125 44.285156 13.324219C44.179688 13.867188 44.53125 14.390625 45.074219 14.5C45.613281 14.609375 46.140625 14.257813 46.25 13.714844C46.355469 13.171875 46.003906 12.644531 45.464844 12.535156 Z M 14.808594 13.808594C14.550781 13.808594 14.296875 13.90625 14.101563 14.097656C13.710938 14.492188 13.710938 15.125 14.101563 15.515625C14.492188 15.90625 15.125 15.90625 15.515625 15.515625C15.90625 15.121094 15.90625 14.488281 15.515625 14.097656C15.320313 13.90625 15.066406 13.808594 14.808594 13.808594 Z M 50.328125 14.054688C49.9375 14.058594 49.566406 14.289063 49.40625 14.671875C49.195313 15.183594 49.4375 15.765625 49.949219 15.980469C50.460938 16.191406 51.042969 15.949219 51.253906 15.4375C51.46875 14.925781 51.226563 14.34375 50.714844 14.128906C50.585938 14.078125 50.457031 14.054688 50.328125 14.054688 Z M 55.1875 16.566406C54.808594 16.496094 54.398438 16.648438 54.171875 16.996094C53.863281 17.453125 53.984375 18.074219 54.445313 18.382813C54.90625 18.691406 55.523438 18.566406 55.832031 18.105469C56.140625 17.644531 56.015625 17.027344 55.558594 16.71875C55.441406 16.640625 55.316406 16.59375 55.1875 16.566406 Z M 11.984375 18.027344C11.59375 18.027344 11.222656 18.261719 11.0625 18.640625C10.851563 19.152344 11.09375 19.738281 11.605469 19.949219C12.117188 20.160156 12.699219 19.917969 12.910156 19.40625C13.125 18.898438 12.882813 18.3125 12.371094 18.101563C12.242188 18.046875 12.113281 18.023438 11.984375 18.027344 Z M 59.09375 19.90625C58.835938 19.90625 58.578125 20.003906 58.386719 20.203125C57.992188 20.59375 57.992188 21.226563 58.386719 21.613281C58.777344 22.007813 59.410156 22.007813 59.796875 21.613281C60.191406 21.222656 60.191406 20.589844 59.796875 20.203125C59.601563 20.003906 59.347656 19.90625 59.09375 19.90625 Z M 39.917969 22C37.058594 22 34.496094 22.386719 32.300781 23.1875C30.078125 24 28.28125 25.214844 27.042969 26.8125C25.792969 28.410156 25.144531 30.320313 25.144531 32.375C25.144531 34.496094 25.753906 36.398438 26.972656 37.902344L26.972656 37.90625C28.140625 39.339844 29.71875 40.46875 31.625 41.269531C33.445313 42.03125 35.683594 42.6875 38.300781 43.242188L38.304688 43.242188C40.179688 43.632813 41.6875 44 42.765625 44.332031C43.730469 44.628906 44.484375 45.050781 45.03125 45.550781C45.476563 45.964844 45.660156 46.382813 45.660156 47.132813C45.660156 48.023438 45.320313 48.648438 44.265625 49.355469C43.214844 50.0625 41.742188 50.46875 39.832031 50.46875C38.433594 50.46875 37.359375 50.257813 36.65625 49.925781L36.652344 49.925781C35.875 49.566406 35.3125 49.121094 34.949219 48.640625L34.945313 48.640625C34.5 48.0625 34.054688 47.296875 33.640625 46.363281L33.640625 46.355469C33.203125 45.34375 32.640625 44.503906 31.910156 43.894531C31.128906 43.246094 30.132813 42.917969 29.089844 42.917969C27.847656 42.917969 26.691406 43.324219 25.820313 44.125L25.816406 44.128906C24.957031 44.929688 24.464844 46.015625 24.464844 47.171875C24.464844 48.855469 25.09375 50.546875 26.238281 52.167969C27.371094 53.777344 28.871094 55.089844 30.667969 56.046875L30.671875 56.046875C33.1875 57.367188 36.339844 58 40.015625 58C43.082031 58 45.816406 57.53125 48.140625 56.582031C50.472656 55.628906 52.335938 54.25 53.609375 52.472656C54.882813 50.703125 55.53125 48.640625 55.535156 46.4375L55.535156 46.433594C55.535156 44.613281 55.171875 42.984375 54.398438 41.628906L54.398438 41.625C53.648438 40.316406 52.585938 39.21875 51.277344 38.375C50.015625 37.5625 48.511719 36.894531 46.796875 36.347656L46.792969 36.347656C45.125 35.824219 43.257813 35.347656 41.230469 34.917969L41.21875 34.910156C39.644531 34.554688 38.5 34.273438 37.839844 34.09375C37.234375 33.929688 36.625 33.695313 36.023438 33.398438C35.496094 33.136719 35.117188 32.84375 34.871094 32.546875C34.679688 32.316406 34.605469 32.128906 34.605469 31.765625C34.605469 31.226563 34.820313 30.824219 35.6875 30.265625L35.6875 30.261719C36.546875 29.707031 37.792969 29.378906 39.4375 29.378906C41.242188 29.378906 42.449219 29.71875 42.980469 30.121094L42.984375 30.121094C43.699219 30.65625 44.363281 31.445313 44.921875 32.503906L44.945313 32.542969C45.511719 33.5 46.035156 34.214844 46.628906 34.734375C47.363281 35.371094 48.347656 35.628906 49.425781 35.628906C50.667969 35.628906 51.832031 35.160156 52.6875 34.28125C53.511719 33.4375 53.984375 32.355469 53.984375 31.222656C53.984375 30.125 53.667969 29.019531 53.089844 27.957031C52.496094 26.871094 51.589844 25.878906 50.410156 24.96875C49.210938 24.042969 47.722656 23.324219 46 22.796875C44.25 22.257813 42.210938 22 39.917969 22 Z M 11 23C10.449219 23 10 23.449219 10 24C10 24.550781 10.449219 25 11 25C11.550781 25 12 24.550781 12 24C12 23.449219 11.550781 23 11 23 Z M 39.917969 24C42.058594 24 43.914063 24.242188 45.414063 24.707031C46.953125 25.179688 48.226563 25.8125 49.1875 26.554688C50.199219 27.332031 50.90625 28.136719 51.332031 28.917969C51.78125 29.738281 51.984375 30.511719 51.984375 31.222656C51.984375 31.839844 51.78125 32.347656 51.253906 32.886719L51.253906 32.890625C50.753906 33.402344 50.203125 33.628906 49.425781 33.628906C48.667969 33.628906 48.207031 33.453125 47.941406 33.222656C47.609375 32.933594 47.171875 32.382813 46.667969 31.527344L46.6875 31.566406C46.015625 30.300781 45.179688 29.265625 44.175781 28.515625C43.046875 27.671875 41.460938 27.378906 39.4375 27.378906C37.53125 27.378906 35.890625 27.75 34.601563 28.582031C33.398438 29.359375 32.605469 30.488281 32.605469 31.765625C32.605469 32.519531 32.859375 33.257813 33.328125 33.828125L33.332031 33.832031L33.339844 33.835938C33.800781 34.382813 34.410156 34.835938 35.140625 35.191406C35.847656 35.542969 36.574219 35.824219 37.3125 36.027344C38.03125 36.21875 39.191406 36.5 40.785156 36.863281L40.796875 36.867188L40.800781 36.871094C42.78125 37.289063 44.597656 37.753906 46.1875 38.253906C47.773438 38.757813 49.121094 39.367188 50.191406 40.054688C51.253906 40.738281 52.074219 41.59375 52.660156 42.621094C53.226563 43.609375 53.535156 44.878906 53.535156 46.433594C53.535156 48.253906 53.023438 49.863281 51.984375 51.308594C50.964844 52.734375 49.441406 53.890625 47.382813 54.730469L47.382813 54.734375C45.359375 55.5625 42.878906 56 40.015625 56C36.570313 56 33.746094 55.398438 31.609375 54.28125C30.070313 53.460938 28.820313 52.367188 27.875 51.015625L27.875 51.011719C26.90625 49.640625 26.464844 48.359375 26.464844 47.171875C26.464844 46.535156 26.667969 46.070313 27.179688 45.59375C27.671875 45.144531 28.257813 44.917969 29.089844 44.917969C29.742188 44.917969 30.21875 45.089844 30.632813 45.433594C31.046875 45.777344 31.457031 46.347656 31.804688 47.15625L31.8125 47.164063C32.273438 48.214844 32.785156 49.113281 33.359375 49.859375C33.957031 50.644531 34.796875 51.269531 35.8125 51.738281C36.90625 52.25 38.246094 52.46875 39.832031 52.46875C42.023438 52.46875 43.910156 52.007813 45.382813 51.015625C46.800781 50.0625 47.660156 48.683594 47.660156 47.132813C47.660156 45.949219 47.222656 44.851563 46.386719 44.078125C45.574219 43.332031 44.542969 42.785156 43.355469 42.421875C42.175781 42.058594 40.621094 41.683594 38.714844 41.285156L38.710938 41.28125C36.183594 40.746094 34.054688 40.117188 32.402344 39.421875C30.746094 38.730469 29.460938 37.792969 28.527344 36.640625C27.613281 35.515625 27.144531 34.128906 27.144531 32.375C27.144531 30.726563 27.632813 29.304688 28.621094 28.039063L28.625 28.035156C29.59375 26.789063 31.042969 25.777344 32.988281 25.066406C34.90625 24.367188 37.242188 24 39.917969 24 Z M 62.261719 24.015625C62.132813 24.042969 62.007813 24.089844 61.894531 24.167969C61.433594 24.476563 61.308594 25.09375 61.617188 25.554688C61.925781 26.015625 62.546875 26.136719 63.003906 25.828125C63.464844 25.523438 63.589844 24.902344 63.28125 24.441406C63.050781 24.097656 62.644531 23.945313 62.261719 24.015625 Z M 11.996094 27.972656C11.867188 27.972656 11.734375 27.996094 11.609375 28.050781C11.097656 28.261719 10.855469 28.847656 11.066406 29.359375C11.277344 29.867188 11.863281 30.109375 12.375 29.898438C12.882813 29.6875 13.125 29.101563 12.914063 28.59375C12.753906 28.210938 12.386719 27.976563 11.996094 27.972656 Z M 64.953125 28.667969C64.820313 28.664063 64.6875 28.6875 64.5625 28.742188C64.050781 28.953125 63.808594 29.539063 64.019531 30.050781C64.230469 30.5625 64.816406 30.804688 65.328125 30.59375C65.835938 30.378906 66.078125 29.792969 65.867188 29.28125C65.707031 28.902344 65.339844 28.667969 64.953125 28.667969 Z M 13.316406 33.75C12.933594 33.832031 12.617188 34.128906 12.535156 34.535156C12.429688 35.078125 12.78125 35.605469 13.324219 35.714844C13.867188 35.820313 14.390625 35.46875 14.5 34.925781C14.609375 34.386719 14.257813 33.859375 13.714844 33.75C13.578125 33.726563 13.445313 33.726563 13.316406 33.75 Z M 66.285156 33.75C65.742188 33.859375 65.394531 34.386719 65.5 34.925781C65.609375 35.46875 66.132813 35.820313 66.675781 35.714844C67.21875 35.605469 67.570313 35.078125 67.464844 34.535156C67.355469 33.996094 66.828125 33.644531 66.285156 33.75 Z M 13 39C12.449219 39 12 39.449219 12 40C12 40.550781 12.449219 41 13 41C13.550781 41 14 40.550781 14 40C14 39.449219 13.550781 39 13 39 Z M 67 39C66.449219 39 66 39.449219 66 40C66 40.550781 66.449219 41 67 41C67.550781 41 68 40.550781 68 40C68 39.449219 67.550781 39 67 39 Z M 13.324219 44.285156C12.78125 44.394531 12.429688 44.921875 12.535156 45.464844C12.644531 46.003906 13.171875 46.355469 13.714844 46.25C14.257813 46.140625 14.605469 45.613281 14.5 45.074219C14.390625 44.53125 13.867188 44.179688 13.324219 44.285156 Z M 66.28125 44.285156C65.898438 44.367188 65.582031 44.664063 65.5 45.074219C65.390625 45.613281 65.742188 46.140625 66.285156 46.25C66.828125 46.355469 67.355469 46.003906 67.464844 45.464844C67.570313 44.921875 67.21875 44.394531 66.675781 44.285156C66.539063 44.261719 66.40625 44.261719 66.28125 44.285156 Z M 15.0625 49.332031C14.933594 49.332031 14.800781 49.355469 14.671875 49.40625C14.164063 49.621094 13.921875 50.207031 14.132813 50.71875C14.34375 51.226563 14.929688 51.46875 15.4375 51.257813C15.949219 51.046875 16.191406 50.460938 15.980469 49.949219C15.820313 49.566406 15.453125 49.335938 15.0625 49.332031 Z M 68.015625 50.023438C67.886719 50.023438 67.753906 50.046875 67.625 50.101563C67.117188 50.3125 66.875 50.898438 67.085938 51.40625C67.296875 51.917969 67.882813 52.160156 68.390625 51.949219C68.902344 51.738281 69.144531 51.152344 68.933594 50.640625C68.773438 50.261719 68.40625 50.027344 68.015625 50.023438 Z M 17.359375 54.015625C17.234375 54.042969 17.109375 54.09375 16.996094 54.171875C16.535156 54.476563 16.410156 55.097656 16.71875 55.558594C17.027344 56.015625 17.644531 56.140625 18.105469 55.832031C18.566406 55.523438 18.691406 54.90625 18.382813 54.445313C18.152344 54.101563 17.742188 53.945313 17.359375 54.015625 Z M 69 55C68.449219 55 68 55.449219 68 56C68 56.550781 68.449219 57 69 57C69.550781 57 70 56.550781 70 56C70 55.449219 69.550781 55 69 55 Z M 20.90625 58.09375C20.652344 58.09375 20.398438 58.1875 20.203125 58.386719C19.808594 58.777344 19.808594 59.410156 20.203125 59.796875C20.59375 60.191406 21.226563 60.191406 21.613281 59.796875C22.007813 59.40625 22.007813 58.773438 21.613281 58.386719C21.421875 58.1875 21.164063 58.09375 20.90625 58.09375 Z M 68.003906 59.972656C67.613281 59.976563 67.246094 60.210938 67.085938 60.59375C66.875 61.101563 67.117188 61.6875 67.625 61.898438C68.136719 62.109375 68.722656 61.867188 68.933594 61.359375C69.144531 60.847656 68.902344 60.261719 68.390625 60.050781C68.265625 59.996094 68.132813 59.972656 68.003906 59.972656 Z M 25.1875 61.46875C24.804688 61.394531 24.398438 61.550781 24.167969 61.894531C23.859375 62.355469 23.984375 62.972656 24.441406 63.28125C24.902344 63.589844 25.523438 63.464844 25.828125 63.003906C26.136719 62.546875 26.015625 61.925781 25.554688 61.617188C25.441406 61.539063 25.316406 61.492188 25.1875 61.46875 Z M 29.660156 63.945313C29.269531 63.949219 28.902344 64.179688 28.742188 64.5625C28.53125 65.074219 28.773438 65.65625 29.28125 65.871094C29.792969 66.082031 30.378906 65.839844 30.59375 65.328125C30.804688 64.816406 30.5625 64.234375 30.050781 64.019531C29.921875 63.96875 29.789063 63.945313 29.660156 63.945313 Z M 65.191406 64.191406C64.933594 64.191406 64.679688 64.289063 64.484375 64.484375C64.09375 64.875 64.09375 65.507813 64.484375 65.898438C64.875 66.289063 65.507813 66.289063 65.898438 65.898438C66.289063 65.507813 66.289063 64.875 65.898438 64.484375C65.703125 64.289063 65.449219 64.191406 65.191406 64.191406 Z M 34.925781 65.5C34.386719 65.390625 33.859375 65.742188 33.75 66.285156C33.644531 66.828125 33.996094 67.355469 34.535156 67.464844C35.078125 67.570313 35.605469 67.21875 35.714844 66.675781C35.820313 66.136719 35.46875 65.609375 34.925781 65.5 Z M 45.074219 65.5C44.53125 65.609375 44.179688 66.132813 44.285156 66.675781C44.394531 67.21875 44.921875 67.570313 45.464844 67.464844C46.003906 67.355469 46.355469 66.828125 46.25 66.285156C46.140625 65.742188 45.613281 65.394531 45.074219 65.5 Z M 40 66C39.449219 66 39 66.449219 39 67C39 67.550781 39.449219 68 40 68C40.550781 68 41 67.550781 41 67C41 66.449219 40.550781 66 40 66 Z M 60.984375 67.011719C60.851563 67.007813 60.71875 67.035156 60.59375 67.089844C60.082031 67.300781 59.839844 67.882813 60.050781 68.394531C60.261719 68.90625 60.847656 69.148438 61.359375 68.9375C61.867188 68.722656 62.109375 68.140625 61.898438 67.628906C61.738281 67.246094 61.371094 67.011719 60.984375 67.011719 Z M 51.015625 67.011719C50.628906 67.015625 50.261719 67.246094 50.101563 67.628906C49.890625 68.140625 50.132813 68.722656 50.640625 68.9375C51.152344 69.148438 51.738281 68.90625 51.949219 68.394531C52.160156 67.882813 51.917969 67.300781 51.40625 67.089844C51.28125 67.035156 51.148438 67.011719 51.015625 67.011719 Z M 56 68C55.449219 68 55 68.449219 55 69C55 69.550781 55.449219 70 56 70C56.550781 70 57 69.550781 57 69C57 68.449219 56.550781 68 56 68Z" fill="#5B5B5B" />
</svg>